<svg width="38" height="38" viewBox="0 0 38 38" fill="none" xmlns="http://www.w3.org/2000/svg">
<path d="M23.5233 27.046C26.5231 26.6902 29.4157 25.985 32.1593 24.9721C29.8844 22.4469 28.4997 19.1039 28.4997 15.4375V14.3279C28.4999 14.3019 28.5 14.276 28.5 14.25C28.5 9.0033 24.2467 4.75 19 4.75C13.7533 4.75 9.5 9.0033 9.5 14.25L9.49969 15.4375C9.49969 19.1039 8.11502 22.4469 5.84009 24.9721C8.58389 25.985 11.4767 26.6903 14.4766 27.0461M23.5233 27.046C22.04 27.222 20.5304 27.3125 18.9997 27.3125C17.4692 27.3125 15.9598 27.222 14.4766 27.0461M23.5233 27.046C23.6705 27.5043 23.75 27.9929 23.75 28.5C23.75 31.1234 21.6234 33.25 19 33.25C16.3766 33.25 14.25 31.1234 14.25 28.5C14.25 27.9929 14.3295 27.5043 14.4766 27.0461" stroke="#0F172A" stroke-width="1.5" stroke-linecap="round" stroke-linejoin="round"/>
</svg>
