<svg width="16" height="16" viewBox="0 0 16 16" fill="none" xmlns="http://www.w3.org/2000/svg">
<path d="M0.800049 6.5998C0.800049 6.04752 1.24776 5.5998 1.80005 5.5998C2.35233 5.5998 2.80005 6.04752 2.80005 6.5998V12.5998C2.80005 13.1521 2.35233 13.5998 1.80005 13.5998C1.24776 13.5998 0.800049 13.1521 0.800049 12.5998V6.5998Z" fill="black"/>
<path d="M8.80005 2.3998V1.35993C8.80005 1.14575 8.91184 0.939054 9.116 0.874329C9.2687 0.82592 9.43133 0.799805 9.60005 0.799805C10.4837 0.799805 11.2 1.51615 11.2 2.3998C11.2 3.19583 11.0547 3.95792 10.7891 4.66098C10.6259 5.09327 10.922 5.5998 11.3841 5.5998H13.4C14.3942 5.5998 15.2089 6.40746 15.117 7.39732C14.9625 9.06109 14.5958 10.6633 14.0441 12.1766C13.7228 13.0578 12.8579 13.5998 11.9199 13.5998H9.36661C8.99402 13.5998 8.62655 13.5131 8.2933 13.3464L6.1068 12.2532C5.77355 12.0866 5.40607 11.9998 5.03349 11.9998H4.00005V6.3998H4.77061C5.31815 6.3998 5.77689 6.01379 6.06038 5.54535C6.45115 4.89964 7.06375 4.40319 7.79253 4.16164C8.13876 4.04688 8.47543 3.85257 8.60204 3.51049C8.73009 3.1645 8.80005 2.79032 8.80005 2.3998Z" fill="black"/>
</svg>
