<svg width="16" height="16" viewBox="0 0 16 16" fill="none" xmlns="http://www.w3.org/2000/svg">
<path d="M3.48223 1.5C3.15071 1.5 2.83277 1.6317 2.59835 1.86612L1.73223 2.73223C0.755922 3.70854 0.755922 5.29146 1.73223 6.26777C2.62367 7.1592 4.02083 7.2367 5.00019 6.50025C5.41779 6.81375 5.93732 7 6.5 7C7.06276 7 7.58237 6.8137 8 6.50011C8.41763 6.8137 8.93724 7 9.5 7C10.0627 7 10.5822 6.81375 10.9998 6.50025C11.9792 7.2367 13.3763 7.15921 14.2678 6.26777C15.2441 5.29146 15.2441 3.70854 14.2678 2.73223L13.4017 1.86612C13.1672 1.6317 12.8493 1.5 12.5178 1.5L3.48223 1.5Z" fill="black"/>
<path fill-rule="evenodd" clip-rule="evenodd" d="M2 13.5V7.6634C2.94681 8.11237 4.05326 8.11206 5.00029 7.66291C5.4551 7.87884 5.96408 8 6.5 8C7.03604 8 7.54512 7.87878 8 7.66277C8.45488 7.87878 8.96396 8 9.5 8C10.0359 8 10.5449 7.87884 10.9997 7.66291C11.9467 8.11206 13.0532 8.11237 14 7.6634V13.5H14.5C14.7761 13.5 15 13.7239 15 14C15 14.2761 14.7761 14.5 14.5 14.5H1.5C1.22386 14.5 1 14.2761 1 14C1 13.7239 1.22386 13.5 1.5 13.5H2ZM4 9.5C4 9.22386 4.22386 9 4.5 9H6.5C6.77614 9 7 9.22386 7 9.5V11.5C7 11.7761 6.77614 12 6.5 12H4.5C4.22386 12 4 11.7761 4 11.5V9.5ZM9.5 9C9.22386 9 9 9.22386 9 9.5V13C9 13.2761 9.22386 13.5 9.5 13.5H11.5C11.7761 13.5 12 13.2761 12 13V9.5C12 9.22386 11.7761 9 11.5 9H9.5Z" fill="black"/>
</svg>
