<svg width="20" height="20" viewBox="0 0 20 20" fill="none" xmlns="http://www.w3.org/2000/svg">
<path fill-rule="evenodd" clip-rule="evenodd" d="M9.99992 2C10.4141 2 10.7499 2.33579 10.7499 2.75V3.00836C12.2308 3.0414 13.688 3.17204 15.1153 3.39419C15.8921 3.51509 16.6599 3.6631 17.4178 3.83721C17.8215 3.92994 18.0736 4.33239 17.9809 4.73608C17.8881 5.13978 17.4857 5.39187 17.082 5.29913C16.7167 5.21521 16.3489 5.13764 15.9789 5.06655L17.6813 12.6123C17.7564 12.9452 17.5973 13.2868 17.2942 13.4435C16.6063 13.7994 15.8254 14 14.9999 14C14.1744 14 13.3936 13.7994 12.7056 13.4435C12.4025 13.2868 12.2434 12.9452 12.3185 12.6123L14.0895 4.76296C12.9932 4.62087 11.879 4.53512 10.7499 4.50875V16.0138C12.0444 16.0616 13.3081 16.2324 14.5294 16.5153C14.933 16.6087 15.1844 17.0116 15.0909 17.4151C14.9975 17.8187 14.5946 18.07 14.191 17.9766C12.8451 17.6649 11.4422 17.5 9.99992 17.5C8.5576 17.5 7.15474 17.6649 5.8088 17.9766C5.40527 18.07 5.00239 17.8187 4.90894 17.4151C4.81549 17.0116 5.06687 16.6087 5.4704 16.5153C6.69171 16.2324 7.9554 16.0616 9.24992 16.0138V4.50875C8.12084 4.53512 7.00667 4.62087 5.91039 4.76296L7.6813 12.6123C7.7564 12.9452 7.59734 13.2868 7.29425 13.4435C6.60628 13.7994 5.82543 14 4.99992 14C4.17441 14 3.39357 13.7994 2.7056 13.4435C2.40251 13.2868 2.24344 12.9452 2.31854 12.6123L4.02096 5.06655C3.6509 5.13764 3.28315 5.21521 2.91784 5.29913C2.51414 5.39187 2.1117 5.13978 2.01896 4.73608C1.92622 4.33239 2.17831 3.92994 2.58201 3.83721C3.33993 3.6631 4.10779 3.51509 4.88457 3.39419C6.3118 3.17204 7.769 3.0414 9.24992 3.00836V2.75C9.24992 2.33579 9.58571 2 9.99992 2ZM4.99992 7.54309L3.91985 12.3304C4.2595 12.4404 4.62229 12.5 4.99992 12.5C5.37755 12.5 5.74035 12.4404 6.08 12.3304L4.99992 7.54309ZM14.9999 7.5431L13.9198 12.3304C14.2595 12.4404 14.6223 12.5 14.9999 12.5C15.3776 12.5 15.7403 12.4404 16.08 12.3304L14.9999 7.5431Z" fill="black"/>
</svg>
