<svg width="27" height="27" viewBox="0 0 27 27" fill="none" xmlns="http://www.w3.org/2000/svg">
<path d="M24.4688 7.59375V19.4062C24.4688 20.8042 23.3355 21.9375 21.9375 21.9375H5.0625C3.66453 21.9375 2.53125 20.8042 2.53125 19.4062V7.59375M24.4688 7.59375C24.4688 6.19578 23.3355 5.0625 21.9375 5.0625H5.0625C3.66453 5.0625 2.53125 6.19578 2.53125 7.59375M24.4688 7.59375V7.8668C24.4688 8.7458 24.0127 9.56188 23.2641 10.0226L14.8266 15.2149C14.0131 15.7155 12.9869 15.7155 12.1734 15.2149L3.73588 10.0226C2.98727 9.56188 2.53125 8.7458 2.53125 7.8668V7.59375" stroke="black" stroke-opacity="0.5" stroke-width="1.5" stroke-linecap="round" stroke-linejoin="round"/>
</svg>
