<svg width="27" height="27" viewBox="0 0 27 27" fill="none" xmlns="http://www.w3.org/2000/svg">
<path d="M2.53125 7.59375C2.53125 16.9136 10.0864 24.4688 19.4062 24.4688H21.9375C23.3355 24.4688 24.4688 23.3355 24.4688 21.9375V20.3944C24.4688 19.8137 24.0735 19.3074 23.5101 19.1666L18.534 17.9226C18.04 17.7991 17.5201 17.9837 17.2145 18.391L16.1231 19.8463C15.8063 20.2687 15.2584 20.4555 14.7626 20.2739C11.0423 18.9111 8.08892 15.9577 6.72611 12.2374C6.54451 11.7416 6.73128 11.1937 7.15365 10.8769L8.60898 9.78546C9.01635 9.47993 9.20094 8.96001 9.07744 8.466L7.83342 3.48992C7.69256 2.9265 7.18633 2.53125 6.60558 2.53125H5.0625C3.66453 2.53125 2.53125 3.66453 2.53125 5.0625V7.59375Z" stroke="black" stroke-opacity="0.5" stroke-width="1.5" stroke-linecap="round" stroke-linejoin="round"/>
</svg>
