<svg width="33" height="33" viewBox="0 0 33 33" fill="none" xmlns="http://www.w3.org/2000/svg">
<path d="M20.4283 23.4874C23.0333 23.1784 25.5453 22.5659 27.9279 21.6863C25.9523 19.4934 24.7499 16.5902 24.7499 13.4062V12.4426C24.75 12.4201 24.7501 12.3976 24.7501 12.375C24.7501 7.81865 21.0565 4.125 16.5001 4.125C11.9438 4.125 8.25012 7.81865 8.25012 12.375L8.24985 13.4062C8.24985 16.5902 7.04737 19.4934 5.07178 21.6863C7.45455 22.566 9.96672 23.1784 12.5719 23.4874M20.4283 23.4874C19.1401 23.6402 17.8292 23.7188 16.4999 23.7188C15.1707 23.7188 13.86 23.6402 12.5719 23.4874M20.4283 23.4874C20.5561 23.8853 20.6251 24.3096 20.6251 24.75C20.6251 27.0282 18.7783 28.875 16.5001 28.875C14.2219 28.875 12.3751 27.0282 12.3751 24.75C12.3751 24.3096 12.4441 23.8853 12.5719 23.4874" stroke="black" stroke-width="1.5" stroke-linecap="round" stroke-linejoin="round"/>
</svg>
