<svg width="35" height="33" viewBox="0 0 35 33" fill="none" xmlns="http://www.w3.org/2000/svg">
<path d="M13.9912 5.4175C14.1224 4.67225 14.8078 4.125 15.6099 4.125H19.3914C20.1935 4.125 20.8789 4.67225 21.0101 5.4175L21.3207 7.17888C21.4126 7.69313 21.7772 8.12212 22.2614 8.37512C22.3693 8.43012 22.4757 8.48925 22.5822 8.54975C23.0562 8.81925 23.6322 8.90313 24.1499 8.72025L25.9247 8.09325C26.2884 7.96429 26.6889 7.96122 27.0547 8.0846C27.4206 8.20799 27.7282 8.44981 27.9226 8.767L29.8126 11.8566C30.0067 12.1738 30.0751 12.5457 30.0056 12.906C29.9362 13.2663 29.7334 13.5917 29.4335 13.8243L27.9707 14.9614C27.5435 15.2927 27.332 15.8043 27.3437 16.3254C27.3457 16.4422 27.3457 16.5591 27.3437 16.676C27.332 17.1958 27.5435 17.7073 27.9707 18.0386L29.4349 19.1757C30.0532 19.657 30.2137 20.4889 29.8141 21.142L27.9212 24.2316C27.727 24.5488 27.4198 24.7906 27.0542 24.9143C26.6886 25.0379 26.2884 25.0352 25.9247 24.9067L24.1499 24.2798C23.6322 24.0969 23.0562 24.1807 22.5807 24.4502C22.475 24.5109 22.3681 24.5696 22.2599 24.6262C21.7772 24.8779 21.4126 25.3069 21.3207 25.8211L21.0101 27.5825C20.8789 28.3291 20.1935 28.875 19.3914 28.875H15.6085C14.8064 28.875 14.1224 28.3277 13.9897 27.5825L13.6791 25.8211C13.5887 25.3069 13.2241 24.8779 12.7399 24.6249C12.6318 24.5686 12.5248 24.5104 12.4191 24.4502C11.9451 24.1807 11.3691 24.0969 10.8499 24.2798L9.07512 24.9067C8.7116 25.0353 8.31149 25.0382 7.94593 24.9149C7.58038 24.7915 7.27307 24.5499 7.07866 24.233L5.1872 21.1434C4.99316 20.8262 4.92477 20.4543 4.9942 20.094C5.06363 19.7337 5.26638 19.4083 5.56637 19.1757L7.03054 18.0386C7.45637 17.7086 7.66783 17.1958 7.65762 16.676C7.65534 16.5591 7.65534 16.4422 7.65762 16.3254C7.66783 15.8029 7.45637 15.2927 7.03054 14.9614L5.56637 13.8243C5.26674 13.5917 5.06423 13.2666 4.99481 12.9066C4.92539 12.5466 4.99356 12.1751 5.1872 11.858L7.07866 8.76837C7.27289 8.45094 7.58035 8.20883 7.94624 8.08519C8.31214 7.96155 8.71271 7.9644 9.07658 8.09325L10.8499 8.72025C11.3691 8.90313 11.9451 8.81925 12.4191 8.54975C12.5241 8.48925 12.632 8.4315 12.7399 8.37375C13.2241 8.12213 13.5887 7.69313 13.6791 7.17888L13.9912 5.4175Z" stroke="black" stroke-width="1.5" stroke-linecap="round" stroke-linejoin="round"/>
<path d="M21.875 16.5C21.875 17.594 21.4141 18.6432 20.5936 19.4168C19.7731 20.1904 18.6603 20.625 17.5 20.625C16.3397 20.625 15.2269 20.1904 14.4064 19.4168C13.5859 18.6432 13.125 17.594 13.125 16.5C13.125 15.406 13.5859 14.3568 14.4064 13.5832C15.2269 12.8096 16.3397 12.375 17.5 12.375C18.6603 12.375 19.7731 12.8096 20.5936 13.5832C21.4141 14.3568 21.875 15.406 21.875 16.5Z" stroke="black" stroke-width="1.5" stroke-linecap="round" stroke-linejoin="round"/>
</svg>
