<svg width="38" height="38" viewBox="0 0 38 38" fill="none" xmlns="http://www.w3.org/2000/svg">
<path d="M12.5408 10.0217C11.8452 9.32609 10.7173 9.32609 10.0217 10.0217C9.32609 10.7173 9.32609 11.8452 10.0217 12.5408L16.4809 19L10.0217 25.4592C9.32609 26.1548 9.32609 27.2827 10.0217 27.9783C10.7173 28.6739 11.8452 28.6739 12.5408 27.9783L19 21.5191L25.4592 27.9783C26.1548 28.6739 27.2827 28.6739 27.9783 27.9783C28.6739 27.2827 28.6739 26.1548 27.9783 25.4592L21.5191 19L27.9783 12.5408C28.6739 11.8452 28.6739 10.7173 27.9783 10.0217C27.2827 9.32609 26.1548 9.32609 25.4592 10.0217L19 16.4809L12.5408 10.0217Z" fill="#0F172A"/>
</svg>
