<svg width="58" height="58" viewBox="0 0 58 58" fill="none" xmlns="http://www.w3.org/2000/svg">
<path d="M27.7448 8.45525C28.2091 7.33881 29.7907 7.33881 30.2551 8.45525L35.3928 20.8079C35.5886 21.2786 36.0312 21.6002 36.5393 21.6409L49.8751 22.71C51.0804 22.8067 51.5691 24.3108 50.6508 25.0975L40.4904 33.801C40.1032 34.1326 39.9342 34.6529 40.0524 35.1488L43.1566 48.1622C43.4372 49.3384 42.1577 50.268 41.1258 49.6377L29.7085 42.6641C29.2735 42.3984 28.7264 42.3984 28.2913 42.6641L16.8741 49.6377C15.8422 50.268 14.5627 49.3384 14.8432 48.1622L17.9474 35.1488C18.0657 34.6529 17.8966 34.1326 17.5095 33.801L7.34902 25.0975C6.43071 24.3108 6.91944 22.8067 8.12474 22.71L21.4605 21.6409C21.9686 21.6002 22.4112 21.2786 22.607 20.8079L27.7448 8.45525Z" stroke="#0F172A" stroke-width="1.5" stroke-linecap="round" stroke-linejoin="round"/>
</svg>
