<svg width="24" height="25" viewBox="0 0 24 25" fill="none" xmlns="http://www.w3.org/2000/svg">
<path d="M9.53086 16.1363C9.08517 15.0382 8.00801 14.2639 6.75 14.2639C5.09315 14.2639 3.75 15.6071 3.75 17.2639C3.75 18.5066 2.74262 19.5139 1.49998 19.5139C1.44928 19.5139 1.39898 19.5122 1.34912 19.5089C2.12648 20.8567 3.58229 21.7639 5.24998 21.7639C7.72821 21.7639 9.73854 19.7606 9.74993 17.2851C9.74998 17.278 9.75 17.271 9.75 17.2639C9.75 16.8651 9.67217 16.4844 9.53086 16.1363ZM9.53086 16.1363C10.7252 15.7293 11.8612 15.1844 12.9175 14.5167M7.875 14.4908C8.2823 13.2936 8.8281 12.155 9.49724 11.0964M12.9175 14.5167C14.798 13.328 16.4259 11.7501 17.6806 9.86797L21.5566 4.05398C21.6827 3.86484 21.75 3.64262 21.75 3.4153C21.75 2.77941 21.2345 2.26392 20.5986 2.26392C20.3713 2.26392 20.1491 2.3312 19.9599 2.45729L14.1459 6.33328C12.2638 7.58804 10.6859 9.21595 9.49724 11.0964M12.9175 14.5167C12.2396 12.9972 11.0167 11.7743 9.49724 11.0964" stroke="#0F172A" stroke-width="1.5" stroke-linecap="round" stroke-linejoin="round"/>
</svg>
